<svg id="svg" version="1.1" xmlns="http://www.w3.org/2000/svg" xmlns:xlink="http://www.w3.org/1999/xlink" width="400" height="85.33333333333333" viewBox="0, 0, 400,85.33333333333333"><g id="svgg"><path id="path0" d="M106.721 16.910 C 105.822 17.301,105.833 17.182,105.833 26.303 L 105.833 34.795 105.451 35.046 C 105.094 35.279,105.016 35.261,104.326 34.786 C 103.416 34.160,101.117 33.000,100.785 33.000 C 100.651 33.000,100.214 32.877,99.813 32.727 C 99.063 32.446,98.017 32.253,96.228 32.065 C 95.192 31.956,94.334 32.089,92.417 32.657 C 91.867 32.820,91.043 33.043,90.587 33.153 C 90.131 33.262,89.719 33.413,89.671 33.488 C 89.623 33.562,89.174 33.829,88.674 34.082 C 85.228 35.820,82.008 40.099,81.209 44.000 C 81.106 44.504,80.942 45.316,80.844 45.804 C 80.030 49.876,81.513 57.076,83.656 59.461 C 83.800 59.620,84.113 60.013,84.353 60.333 C 84.922 61.093,86.303 62.472,86.833 62.809 C 87.063 62.954,87.513 63.271,87.833 63.513 C 88.154 63.754,88.679 64.052,89.000 64.175 C 89.321 64.298,89.771 64.527,90.000 64.684 C 90.229 64.840,90.829 65.056,91.333 65.163 C 91.837 65.269,92.737 65.475,93.333 65.619 C 96.652 66.422,101.366 65.446,104.317 63.345 C 105.213 62.707,105.833 62.978,105.833 64.005 C 105.833 64.932,106.267 65.083,108.917 65.083 C 110.498 65.083,111.241 65.017,111.558 64.847 L 112.000 64.610 111.995 41.097 C 111.991 22.550,111.945 17.526,111.781 17.310 C 111.305 16.684,107.866 16.412,106.721 16.910 M234.709 16.829 C 233.574 17.099,233.667 14.947,233.667 41.000 C 233.667 62.716,233.689 64.644,233.941 64.853 C 234.143 65.022,234.829 65.081,236.581 65.082 C 239.438 65.084,239.791 64.960,239.867 63.938 C 239.946 62.855,240.475 62.776,241.823 63.647 C 242.407 64.025,242.956 64.333,243.042 64.333 C 243.128 64.333,243.398 64.473,243.641 64.644 C 245.063 65.642,249.960 66.191,252.333 65.618 C 252.929 65.474,253.829 65.266,254.333 65.155 C 254.838 65.044,255.438 64.827,255.667 64.673 C 255.896 64.518,256.346 64.289,256.667 64.164 C 256.987 64.039,257.580 63.688,257.982 63.385 C 258.385 63.082,258.764 62.833,258.824 62.833 C 259.126 62.833,262.333 59.249,262.333 58.912 C 262.333 58.865,262.518 58.534,262.744 58.177 C 265.316 54.102,265.718 46.812,263.652 41.718 C 262.360 38.535,259.656 35.413,257.067 34.116 C 256.618 33.891,255.935 33.548,255.550 33.353 C 255.165 33.159,254.708 33.000,254.536 33.000 C 254.363 33.000,253.778 32.856,253.236 32.680 C 251.679 32.174,250.248 31.950,249.295 32.061 C 247.561 32.263,246.571 32.452,245.833 32.721 C 245.421 32.872,244.962 32.996,244.815 32.998 C 244.496 33.000,242.380 34.073,241.371 34.743 C 240.760 35.149,240.600 35.190,240.246 35.028 L 239.833 34.840 239.833 26.326 C 239.833 17.129,239.850 17.296,238.909 16.903 C 238.300 16.648,235.666 16.602,234.709 16.829 M351.043 16.822 C 349.934 17.100,350.000 16.526,349.998 25.812 C 349.995 35.206,350.004 35.120,348.995 35.036 C 348.682 35.010,348.274 34.850,348.088 34.680 C 347.902 34.509,347.450 34.221,347.083 34.038 C 346.717 33.855,346.120 33.547,345.756 33.353 C 345.393 33.159,344.965 33.000,344.804 33.000 C 344.644 33.000,344.116 32.860,343.631 32.690 C 341.596 31.974,339.512 31.849,337.667 32.334 C 336.979 32.514,335.953 32.776,335.386 32.916 C 330.945 34.007,326.556 38.677,325.360 43.583 C 324.671 46.405,324.619 46.796,324.629 48.993 C 324.657 54.694,327.218 60.392,330.833 62.796 C 331.063 62.949,331.512 63.271,331.833 63.513 C 332.154 63.754,332.679 64.052,333.000 64.175 C 333.321 64.298,333.771 64.530,334.000 64.690 C 334.229 64.851,334.942 65.095,335.583 65.233 C 336.225 65.371,337.050 65.560,337.417 65.653 C 338.763 65.995,340.854 66.042,342.083 65.758 C 342.725 65.610,343.706 65.385,344.264 65.259 C 345.133 65.062,347.749 63.843,348.000 63.518 C 348.143 63.333,349.000 63.000,349.334 63.000 C 349.569 63.000,349.703 63.188,349.842 63.708 C 350.131 64.792,350.228 64.903,351.017 65.049 C 352.122 65.254,355.179 65.104,355.626 64.822 L 356.001 64.586 355.959 41.019 L 355.917 17.453 355.447 17.101 C 354.932 16.717,352.164 16.541,351.043 16.822 M24.917 18.753 C 24.367 18.870,23.392 19.058,22.750 19.170 C 22.108 19.282,21.358 19.503,21.083 19.661 C 20.808 19.819,20.321 20.050,20.000 20.175 C 16.805 21.417,12.938 25.815,11.507 29.833 C 11.393 30.154,11.232 30.567,11.149 30.750 C 9.248 34.943,8.922 45.327,10.498 51.486 C 11.973 57.251,16.005 62.631,20.000 64.161 C 20.321 64.284,20.808 64.517,21.083 64.678 C 21.358 64.839,22.071 65.061,22.667 65.171 C 23.262 65.281,24.125 65.470,24.583 65.591 C 29.438 66.873,35.901 65.054,39.626 61.358 C 40.783 60.209,40.968 59.995,41.661 59.000 C 41.884 58.679,42.115 58.379,42.173 58.333 C 42.231 58.288,42.505 57.837,42.781 57.333 C 43.058 56.829,43.445 56.133,43.642 55.787 C 44.102 54.978,44.094 54.849,43.542 54.191 C 42.873 53.394,39.203 51.355,38.840 51.579 C 38.637 51.704,37.333 53.593,37.333 53.761 C 37.333 54.301,33.986 58.045,33.151 58.440 C 30.747 59.577,30.731 59.580,27.917 59.637 L 25.251 59.691 24.001 59.150 C 22.396 58.456,21.614 57.932,20.539 56.833 C 19.203 55.469,17.622 52.473,17.108 50.333 C 16.965 49.737,16.713 48.688,16.549 48.000 C 16.160 46.373,16.110 38.527,16.479 36.917 C 17.704 31.559,18.638 29.509,20.846 27.326 C 21.544 26.636,22.962 25.667,23.274 25.667 C 23.393 25.667,23.924 25.466,24.453 25.221 C 25.688 24.649,28.675 24.473,30.167 24.884 C 32.161 25.435,33.344 25.941,34.136 26.583 C 35.654 27.814,36.254 28.424,36.926 29.420 C 37.805 30.721,38.640 31.667,38.912 31.667 C 39.132 31.667,40.900 30.759,41.490 30.344 C 41.725 30.179,42.077 29.994,42.272 29.934 C 43.031 29.698,43.847 28.506,43.522 28.106 C 43.438 28.002,43.161 27.542,42.907 27.083 C 42.000 25.445,40.106 23.244,38.566 22.039 C 37.839 21.470,36.011 20.333,35.824 20.333 C 35.733 20.333,35.156 20.105,34.541 19.826 C 33.925 19.547,32.896 19.240,32.253 19.143 C 31.610 19.047,30.666 18.863,30.156 18.734 C 29.026 18.449,26.291 18.459,24.917 18.753 M164.550 19.669 C 163.624 20.042,163.667 18.928,163.667 42.702 L 163.667 64.586 164.042 64.832 C 164.611 65.205,168.725 65.286,169.552 64.940 L 170.167 64.684 170.167 55.569 C 170.167 47.083,170.187 46.438,170.458 46.232 C 170.865 45.924,177.318 45.902,177.689 46.208 C 177.828 46.323,178.265 46.979,178.661 47.667 C 179.056 48.354,179.519 49.120,179.690 49.368 C 179.860 49.617,180.000 49.847,180.000 49.881 C 180.000 49.914,180.438 50.724,180.974 51.679 C 182.461 54.333,182.683 54.717,182.990 55.167 C 183.146 55.396,183.404 55.846,183.564 56.167 C 183.723 56.487,184.148 57.237,184.509 57.833 C 184.870 58.429,185.409 59.355,185.708 59.890 C 186.006 60.426,186.373 61.085,186.524 61.355 C 186.674 61.625,186.976 62.124,187.195 62.465 C 187.414 62.805,187.769 63.436,187.985 63.866 C 188.603 65.100,189.017 65.225,192.202 65.133 C 195.508 65.037,195.664 64.951,194.862 63.662 C 194.571 63.194,194.333 62.785,194.333 62.752 C 194.333 62.720,193.948 62.031,193.476 61.221 C 193.005 60.412,192.400 59.339,192.132 58.837 C 191.864 58.335,191.583 57.848,191.507 57.754 C 191.431 57.660,191.198 57.283,190.990 56.917 C 190.781 56.550,190.312 55.725,189.947 55.083 C 189.583 54.442,189.052 53.518,188.767 53.030 C 188.483 52.543,188.099 51.868,187.914 51.530 C 187.729 51.193,187.286 50.429,186.928 49.833 C 186.571 49.237,186.003 48.262,185.667 47.667 C 185.331 47.071,184.896 46.305,184.701 45.964 L 184.345 45.345 184.787 44.820 C 185.030 44.531,185.553 44.156,185.949 43.986 C 188.208 43.018,191.509 39.731,192.044 37.917 C 192.098 37.733,192.343 37.021,192.589 36.333 C 193.328 34.267,193.265 30.561,192.452 28.216 C 190.729 23.242,187.567 20.772,181.500 19.658 C 180.490 19.472,165.014 19.482,164.550 19.669 M122.333 20.817 C 122.013 21.004,121.521 21.274,121.242 21.415 C 120.324 21.881,119.613 23.318,119.608 24.719 C 119.591 29.227,125.292 30.675,127.594 26.748 C 128.178 25.751,128.137 23.126,127.530 22.670 C 127.467 22.622,127.205 22.302,126.949 21.958 C 126.693 21.615,126.405 21.333,126.309 21.333 C 126.213 21.333,125.909 21.173,125.634 20.977 C 124.888 20.446,123.117 20.360,122.333 20.817 M181.272 25.615 C 185.025 26.290,187.417 31.143,185.994 35.196 C 184.672 38.963,182.724 39.815,175.412 39.827 C 171.094 39.834,170.777 39.788,170.294 39.093 C 170.227 38.996,170.171 36.044,170.169 32.534 L 170.167 26.151 170.618 25.733 L 171.069 25.315 175.743 25.388 C 178.313 25.428,180.802 25.530,181.272 25.615 M59.750 32.348 C 59.108 32.522,58.133 32.770,57.583 32.897 C 46.455 35.470,42.935 53.075,51.809 61.776 C 55.174 65.075,61.043 66.705,65.583 65.602 C 66.225 65.446,67.065 65.247,67.450 65.159 C 69.151 64.771,71.621 63.232,73.314 61.503 C 80.887 53.769,78.997 38.627,69.884 34.030 C 69.535 33.854,69.002 33.580,68.700 33.422 C 68.397 33.264,67.685 33.031,67.117 32.904 C 66.548 32.778,65.558 32.525,64.917 32.342 C 63.412 31.913,61.334 31.916,59.750 32.348 M211.500 32.182 C 211.179 32.265,210.392 32.478,209.750 32.655 C 209.108 32.832,208.246 33.066,207.833 33.174 C 207.421 33.282,207.046 33.427,207.000 33.497 C 206.954 33.566,206.507 33.829,206.007 34.082 C 202.562 35.820,199.342 40.099,198.543 44.000 C 198.440 44.504,198.275 45.316,198.178 45.804 C 197.802 47.683,198.069 52.609,198.644 54.417 C 199.234 56.269,200.686 59.322,201.141 59.666 C 201.202 59.712,201.448 60.012,201.688 60.333 C 202.254 61.091,203.635 62.471,204.167 62.809 C 204.396 62.954,204.846 63.271,205.167 63.513 C 205.487 63.754,206.012 64.052,206.333 64.175 C 206.654 64.298,207.104 64.530,207.333 64.690 C 207.734 64.971,208.732 65.224,211.583 65.769 C 212.976 66.035,215.428 65.978,216.534 65.653 C 216.836 65.565,217.630 65.378,218.299 65.238 C 218.996 65.092,219.845 64.774,220.290 64.492 C 220.716 64.221,221.163 64.000,221.282 64.000 C 221.969 64.000,226.333 59.921,226.333 59.279 C 226.333 59.186,226.441 58.991,226.572 58.845 C 226.933 58.447,228.141 55.933,228.317 55.215 C 228.401 54.867,228.588 54.155,228.732 53.632 C 229.897 49.378,228.655 41.053,226.601 39.348 C 226.454 39.226,226.333 39.052,226.333 38.962 C 226.333 38.222,222.956 35.009,221.333 34.206 C 221.011 34.047,220.477 33.748,220.146 33.541 C 219.814 33.335,219.177 33.093,218.730 33.003 C 218.283 32.913,217.242 32.653,216.417 32.425 C 214.831 31.986,212.664 31.879,211.500 32.182 M281.083 32.252 C 280.625 32.371,279.875 32.587,279.417 32.732 C 278.958 32.877,278.430 32.997,278.244 32.998 C 278.057 32.999,277.607 33.159,277.244 33.353 C 276.880 33.547,276.290 33.854,275.932 34.036 C 265.917 39.118,265.012 57.059,274.465 63.124 C 274.713 63.283,275.045 63.530,275.201 63.671 C 275.357 63.812,275.770 64.029,276.118 64.153 C 276.465 64.277,276.940 64.512,277.173 64.675 C 277.405 64.838,278.155 65.089,278.839 65.233 C 279.523 65.377,280.383 65.582,280.750 65.689 C 281.117 65.796,282.242 65.887,283.250 65.892 C 285.013 65.901,285.383 65.840,287.917 65.123 C 288.782 64.879,290.785 63.875,291.388 63.384 C 292.297 62.644,293.167 62.951,293.167 64.013 C 293.167 64.927,293.405 65.028,295.790 65.124 C 297.494 65.192,298.041 65.157,298.542 64.946 L 299.167 64.684 299.167 49.187 C 299.167 32.003,299.255 33.292,298.056 33.067 C 297.204 32.907,293.961 33.087,293.529 33.318 C 293.273 33.455,293.166 33.670,293.164 34.048 C 293.159 35.087,292.099 35.433,291.250 34.674 C 290.784 34.257,288.338 33.000,287.993 33.000 C 287.837 33.000,287.380 32.882,286.979 32.739 C 285.165 32.089,282.550 31.873,281.083 32.252 M320.167 32.198 C 318.905 32.470,316.699 33.131,316.277 33.364 C 316.057 33.484,315.548 33.760,315.147 33.976 C 314.745 34.192,314.190 34.584,313.913 34.847 C 312.432 36.253,311.667 36.158,311.667 34.569 C 311.667 33.213,311.560 33.154,308.934 33.048 C 307.316 32.984,306.793 33.021,306.292 33.236 L 305.667 33.504 305.667 49.065 C 305.667 63.361,305.689 64.644,305.943 64.855 C 306.325 65.170,311.011 65.170,311.391 64.854 C 311.619 64.666,311.657 63.540,311.705 55.695 L 311.759 46.750 312.224 45.333 C 312.683 43.932,312.997 43.162,313.174 43.000 C 313.225 42.954,313.478 42.550,313.737 42.101 C 314.166 41.360,315.923 39.500,316.195 39.500 C 316.257 39.500,316.523 39.319,316.786 39.097 C 317.901 38.159,321.280 37.464,322.501 37.921 C 324.775 38.774,325.000 38.580,325.000 35.757 L 325.000 33.526 324.338 32.959 C 323.334 32.100,321.862 31.831,320.167 32.198 M371.750 32.198 C 371.383 32.288,370.296 32.550,369.333 32.780 C 368.371 33.010,367.321 33.361,367.000 33.560 C 366.679 33.760,366.194 34.034,365.922 34.170 C 363.514 35.371,361.917 38.428,361.917 41.833 C 361.917 44.239,362.283 45.409,363.579 47.146 C 364.040 47.764,365.322 48.888,365.917 49.195 C 366.283 49.384,366.697 49.638,366.835 49.759 C 366.974 49.881,367.462 50.070,367.919 50.180 C 368.376 50.290,369.050 50.491,369.417 50.627 C 370.640 51.080,371.906 51.321,373.094 51.327 C 376.679 51.345,380.072 52.673,380.771 54.331 C 382.207 57.737,379.623 60.007,374.323 59.997 C 370.128 59.989,368.026 59.004,366.045 56.117 C 365.424 55.212,364.738 55.083,363.667 55.668 C 363.346 55.844,362.821 56.110,362.500 56.259 C 362.179 56.409,361.686 56.640,361.403 56.771 C 360.723 57.089,360.254 58.038,360.524 58.550 C 362.138 61.611,366.156 64.819,368.917 65.252 C 369.283 65.310,370.071 65.479,370.667 65.629 C 372.146 66.000,375.906 65.993,377.172 65.616 C 377.673 65.467,378.533 65.258,379.083 65.152 C 379.633 65.046,380.421 64.788,380.833 64.579 C 381.246 64.370,381.851 64.077,382.179 63.928 C 382.506 63.779,383.304 63.173,383.953 62.581 C 389.727 57.311,387.327 48.450,379.667 46.756 C 379.071 46.624,378.021 46.374,377.333 46.199 C 376.646 46.025,375.221 45.829,374.167 45.763 C 372.959 45.688,372.003 45.538,371.583 45.357 C 371.217 45.198,370.579 44.966,370.167 44.839 C 366.965 43.861,366.851 39.524,370.000 38.534 C 374.485 37.122,379.207 38.499,380.925 41.719 C 381.421 42.648,382.235 42.996,382.988 42.601 C 383.647 42.257,384.404 41.878,385.286 41.452 C 385.673 41.266,386.192 40.901,386.440 40.643 L 386.890 40.172 386.422 39.211 C 385.435 37.183,383.481 35.022,381.800 34.098 C 380.020 33.121,379.756 33.000,379.409 33.000 C 379.214 33.000,378.611 32.857,378.069 32.683 C 375.936 31.997,373.371 31.800,371.750 32.198 M121.583 33.218 L 120.917 33.427 120.874 49.041 L 120.832 64.654 121.207 64.869 C 121.752 65.180,126.180 65.168,126.558 64.855 C 126.810 64.645,126.833 63.334,126.833 49.059 L 126.833 33.492 126.375 33.301 C 125.704 33.023,122.388 32.965,121.583 33.218 M64.839 38.417 C 67.811 39.008,70.744 41.992,71.474 45.167 C 71.568 45.579,71.726 46.269,71.823 46.699 C 72.183 48.292,71.969 51.375,71.354 53.448 C 70.479 56.395,67.348 59.350,64.667 59.759 C 62.332 60.115,59.486 59.860,58.333 59.193 C 57.921 58.954,57.381 58.644,57.134 58.504 C 54.084 56.777,52.090 51.295,52.919 46.917 C 54.196 40.182,58.453 37.146,64.839 38.417 M98.706 38.423 C 105.951 39.873,108.454 51.587,102.762 57.410 C 102.086 58.101,101.424 58.667,101.290 58.667 C 101.156 58.667,100.761 58.861,100.411 59.098 C 99.332 59.830,96.461 60.179,94.368 59.832 C 89.474 59.019,86.526 54.699,86.706 48.599 C 86.925 41.122,91.750 37.031,98.706 38.423 M216.039 38.423 C 223.285 39.873,225.787 51.587,220.095 57.410 C 219.420 58.101,218.757 58.667,218.623 58.667 C 218.489 58.667,218.094 58.861,217.744 59.098 C 216.665 59.830,213.794 60.179,211.701 59.832 C 206.813 59.020,203.860 54.691,204.039 48.599 C 204.259 41.122,209.083 37.031,216.039 38.423 M251.949 38.436 C 257.361 39.561,260.499 46.860,258.349 53.325 C 258.061 54.191,257.724 55.016,257.599 55.158 C 257.475 55.300,257.248 55.665,257.094 55.969 C 255.357 59.396,248.565 61.224,245.242 59.159 C 244.880 58.935,244.385 58.638,244.142 58.500 C 239.503 55.871,238.296 46.517,241.970 41.674 C 242.644 40.785,243.722 39.777,244.318 39.479 C 244.555 39.359,244.938 39.140,245.167 38.991 C 246.518 38.114,249.302 37.886,251.949 38.436 M285.937 38.436 C 291.742 39.586,294.773 47.335,292.124 54.250 C 291.555 55.736,289.629 58.078,288.500 58.657 C 288.179 58.822,287.654 59.094,287.334 59.261 C 285.301 60.323,281.488 60.189,279.083 58.970 C 273.277 56.028,271.968 46.176,276.689 40.946 C 278.960 38.429,281.890 37.634,285.937 38.436 M342.750 38.434 C 344.774 38.860,346.660 40.194,347.973 42.127 C 351.457 47.258,349.720 56.881,344.966 58.783 C 344.618 58.922,344.333 59.094,344.333 59.165 C 344.333 59.332,343.877 59.467,342.333 59.758 C 339.045 60.378,335.965 59.622,333.937 57.697 C 333.215 57.012,331.667 54.754,331.667 54.387 C 331.667 54.257,331.542 53.910,331.390 53.617 C 330.704 52.294,330.426 47.953,330.902 46.000 C 331.876 42.007,334.474 39.119,337.710 38.433 C 339.861 37.976,340.581 37.976,342.750 38.434 " stroke="none" fill="#151515" fill-rule="evenodd"></path><path id="path1" d="M0.000 42.667 L 0.000 85.333 200.000 85.333 L 400.000 85.333 400.000 42.667 L 400.000 0.000 200.000 0.000 L 0.000 0.000 0.000 42.667 M110.911 16.852 C 112.074 17.175,111.989 15.279,111.995 41.097 L 112.000 64.610 111.558 64.847 C 111.241 65.017,110.498 65.083,108.917 65.083 C 106.267 65.083,105.833 64.932,105.833 64.005 C 105.833 62.978,105.213 62.707,104.317 63.345 C 101.366 65.446,96.652 66.422,93.333 65.619 C 92.737 65.475,91.837 65.269,91.333 65.163 C 90.829 65.056,90.229 64.840,90.000 64.684 C 89.771 64.527,89.321 64.298,89.000 64.175 C 88.679 64.052,88.154 63.754,87.833 63.513 C 87.513 63.271,87.063 62.954,86.833 62.809 C 86.303 62.472,84.922 61.093,84.353 60.333 C 84.113 60.013,83.800 59.620,83.656 59.461 C 81.513 57.076,80.030 49.876,80.844 45.804 C 80.942 45.316,81.106 44.504,81.209 44.000 C 82.008 40.099,85.228 35.820,88.674 34.082 C 89.174 33.829,89.623 33.562,89.671 33.488 C 89.719 33.413,90.131 33.262,90.587 33.153 C 91.043 33.043,91.867 32.820,92.417 32.657 C 94.334 32.089,95.192 31.956,96.228 32.065 C 98.017 32.253,99.063 32.446,99.813 32.727 C 100.214 32.877,100.651 33.000,100.785 33.000 C 101.117 33.000,103.416 34.160,104.326 34.786 C 105.016 35.261,105.094 35.279,105.451 35.046 L 105.833 34.795 105.833 26.303 C 105.833 17.182,105.822 17.301,106.721 16.910 C 107.366 16.629,109.979 16.593,110.911 16.852 M238.909 16.903 C 239.850 17.296,239.833 17.129,239.833 26.326 L 239.833 34.840 240.246 35.028 C 240.600 35.190,240.760 35.149,241.371 34.743 C 242.380 34.073,244.496 33.000,244.815 32.998 C 244.962 32.996,245.421 32.872,245.833 32.721 C 246.571 32.452,247.561 32.263,249.295 32.061 C 250.248 31.950,251.679 32.174,253.236 32.680 C 253.778 32.856,254.363 33.000,254.536 33.000 C 254.708 33.000,255.165 33.159,255.550 33.353 C 255.935 33.548,256.618 33.891,257.067 34.116 C 259.656 35.413,262.360 38.535,263.652 41.718 C 265.718 46.812,265.316 54.102,262.744 58.177 C 262.518 58.534,262.333 58.865,262.333 58.912 C 262.333 59.249,259.126 62.833,258.824 62.833 C 258.764 62.833,258.385 63.082,257.982 63.385 C 257.580 63.688,256.987 64.039,256.667 64.164 C 256.346 64.289,255.896 64.518,255.667 64.673 C 255.438 64.827,254.838 65.044,254.333 65.155 C 253.829 65.266,252.929 65.474,252.333 65.618 C 249.960 66.191,245.063 65.642,243.641 64.644 C 243.398 64.473,243.128 64.333,243.042 64.333 C 242.956 64.333,242.407 64.025,241.823 63.647 C 240.475 62.776,239.946 62.855,239.867 63.938 C 239.791 64.960,239.438 65.084,236.581 65.082 C 234.829 65.081,234.143 65.022,233.941 64.853 C 233.539 64.520,233.516 17.499,233.918 17.166 C 234.533 16.655,237.892 16.478,238.909 16.903 M355.447 17.101 L 355.917 17.453 355.959 41.019 L 356.001 64.586 355.626 64.822 C 355.179 65.104,352.122 65.254,351.017 65.049 C 350.228 64.903,350.131 64.792,349.842 63.708 C 349.703 63.188,349.569 63.000,349.334 63.000 C 349.000 63.000,348.143 63.333,348.000 63.518 C 347.749 63.843,345.133 65.062,344.264 65.259 C 343.706 65.385,342.725 65.610,342.083 65.758 C 340.854 66.042,338.763 65.995,337.417 65.653 C 337.050 65.560,336.225 65.371,335.583 65.233 C 334.942 65.095,334.229 64.851,334.000 64.690 C 333.771 64.530,333.321 64.298,333.000 64.175 C 332.679 64.052,332.154 63.754,331.833 63.513 C 331.512 63.271,331.063 62.949,330.833 62.796 C 327.218 60.392,324.657 54.694,324.629 48.993 C 324.619 46.796,324.671 46.405,325.360 43.583 C 326.556 38.677,330.945 34.007,335.386 32.916 C 335.953 32.776,336.979 32.514,337.667 32.334 C 339.512 31.849,341.596 31.974,343.631 32.690 C 344.116 32.860,344.644 33.000,344.804 33.000 C 344.965 33.000,345.393 33.159,345.756 33.353 C 346.120 33.547,346.717 33.855,347.083 34.038 C 347.450 34.221,347.902 34.509,348.088 34.680 C 348.274 34.850,348.682 35.010,348.995 35.036 C 350.004 35.120,349.995 35.206,349.998 25.812 C 350.000 18.502,350.034 17.346,350.251 17.166 C 350.985 16.557,354.657 16.511,355.447 17.101 M30.156 18.734 C 30.666 18.863,31.610 19.047,32.253 19.143 C 32.896 19.240,33.925 19.547,34.541 19.826 C 35.156 20.105,35.733 20.333,35.824 20.333 C 36.011 20.333,37.839 21.470,38.566 22.039 C 40.106 23.244,42.000 25.445,42.907 27.083 C 43.161 27.542,43.438 28.002,43.522 28.106 C 43.847 28.506,43.031 29.698,42.272 29.934 C 42.077 29.994,41.725 30.179,41.490 30.344 C 40.900 30.759,39.132 31.667,38.912 31.667 C 38.640 31.667,37.805 30.721,36.926 29.420 C 36.254 28.424,35.654 27.814,34.136 26.583 C 33.344 25.941,32.161 25.435,30.167 24.884 C 28.675 24.473,25.688 24.649,24.453 25.221 C 23.924 25.466,23.393 25.667,23.274 25.667 C 22.962 25.667,21.544 26.636,20.846 27.326 C 18.638 29.509,17.704 31.559,16.479 36.917 C 16.110 38.527,16.160 46.373,16.549 48.000 C 16.713 48.688,16.965 49.737,17.108 50.333 C 18.104 54.481,20.606 57.681,24.001 59.150 L 25.251 59.691 27.917 59.637 C 30.731 59.580,30.747 59.577,33.151 58.440 C 33.986 58.045,37.333 54.301,37.333 53.761 C 37.333 53.593,38.637 51.704,38.840 51.579 C 39.203 51.355,42.873 53.394,43.542 54.191 C 44.094 54.849,44.102 54.978,43.642 55.787 C 43.445 56.133,43.058 56.829,42.781 57.333 C 42.505 57.837,42.231 58.288,42.173 58.333 C 42.115 58.379,41.884 58.679,41.661 59.000 C 39.437 62.193,36.011 64.578,32.566 65.331 C 29.282 66.049,26.643 66.135,24.583 65.591 C 24.125 65.470,23.262 65.281,22.667 65.171 C 22.071 65.061,21.358 64.839,21.083 64.678 C 20.808 64.517,20.321 64.284,20.000 64.161 C 11.634 60.955,7.173 46.298,10.516 33.000 C 10.781 31.946,11.066 30.933,11.149 30.750 C 11.232 30.567,11.393 30.154,11.507 29.833 C 12.938 25.815,16.805 21.417,20.000 20.175 C 20.321 20.050,20.808 19.819,21.083 19.661 C 21.358 19.503,22.108 19.282,22.750 19.170 C 23.392 19.058,24.367 18.870,24.917 18.753 C 26.291 18.459,29.026 18.449,30.156 18.734 M181.500 19.658 C 187.567 20.772,190.729 23.242,192.452 28.216 C 193.265 30.561,193.328 34.267,192.589 36.333 C 192.343 37.021,192.098 37.733,192.044 37.917 C 191.509 39.731,188.208 43.018,185.949 43.986 C 185.553 44.156,185.030 44.531,184.787 44.820 L 184.345 45.345 184.701 45.964 C 184.896 46.305,185.331 47.071,185.667 47.667 C 186.003 48.262,186.571 49.237,186.928 49.833 C 187.286 50.429,187.729 51.193,187.914 51.530 C 188.099 51.868,188.483 52.543,188.767 53.030 C 189.052 53.518,189.583 54.442,189.947 55.083 C 190.312 55.725,190.781 56.550,190.990 56.917 C 191.198 57.283,191.431 57.660,191.507 57.754 C 191.583 57.848,191.864 58.335,192.132 58.837 C 192.400 59.339,193.005 60.412,193.476 61.221 C 193.948 62.031,194.333 62.720,194.333 62.752 C 194.333 62.785,194.571 63.194,194.862 63.662 C 195.664 64.951,195.508 65.037,192.202 65.133 C 189.017 65.225,188.603 65.100,187.985 63.866 C 187.769 63.436,187.414 62.805,187.195 62.465 C 186.976 62.124,186.674 61.625,186.524 61.355 C 186.373 61.085,186.006 60.426,185.708 59.890 C 185.409 59.355,184.870 58.429,184.509 57.833 C 184.148 57.237,183.723 56.487,183.564 56.167 C 183.404 55.846,183.146 55.396,182.990 55.167 C 182.683 54.717,182.461 54.333,180.974 51.679 C 180.438 50.724,180.000 49.914,180.000 49.881 C 180.000 49.847,179.860 49.617,179.690 49.368 C 179.519 49.120,179.056 48.354,178.661 47.667 C 178.265 46.979,177.828 46.323,177.689 46.208 C 177.318 45.902,170.865 45.924,170.458 46.232 C 170.187 46.438,170.167 47.083,170.167 55.569 L 170.167 64.684 169.552 64.940 C 168.725 65.286,164.611 65.205,164.042 64.832 L 163.667 64.586 163.667 42.702 C 163.667 18.928,163.624 20.042,164.550 19.669 C 165.014 19.482,180.490 19.472,181.500 19.658 M125.634 20.977 C 125.909 21.173,126.213 21.333,126.309 21.333 C 126.405 21.333,126.693 21.615,126.949 21.958 C 127.205 22.302,127.467 22.622,127.530 22.670 C 128.137 23.126,128.178 25.751,127.594 26.748 C 125.292 30.675,119.591 29.227,119.608 24.719 C 119.613 23.318,120.324 21.881,121.242 21.415 C 121.521 21.274,122.013 21.004,122.333 20.817 C 123.117 20.360,124.888 20.446,125.634 20.977 M170.618 25.733 L 170.167 26.151 170.169 32.534 C 170.171 36.044,170.227 38.996,170.294 39.093 C 170.777 39.788,171.094 39.834,175.412 39.827 C 182.724 39.815,184.672 38.963,185.994 35.196 C 187.149 31.906,185.992 28.286,183.205 26.471 C 181.782 25.544,181.306 25.474,175.743 25.388 L 171.069 25.315 170.618 25.733 M64.917 32.342 C 65.558 32.525,66.548 32.778,67.117 32.904 C 67.685 33.031,68.397 33.264,68.700 33.422 C 69.002 33.580,69.535 33.854,69.884 34.030 C 78.997 38.627,80.887 53.769,73.314 61.503 C 71.621 63.232,69.151 64.771,67.450 65.159 C 67.065 65.247,66.225 65.446,65.583 65.602 C 61.043 66.705,55.174 65.075,51.809 61.776 C 42.935 53.075,46.455 35.470,57.583 32.897 C 58.133 32.770,59.108 32.522,59.750 32.348 C 61.334 31.916,63.412 31.913,64.917 32.342 M216.417 32.425 C 217.242 32.653,218.283 32.913,218.730 33.003 C 219.177 33.093,219.814 33.335,220.146 33.541 C 220.477 33.748,221.011 34.047,221.333 34.206 C 222.956 35.009,226.333 38.222,226.333 38.962 C 226.333 39.052,226.454 39.226,226.601 39.348 C 228.655 41.053,229.897 49.378,228.732 53.632 C 228.588 54.155,228.401 54.867,228.317 55.215 C 228.141 55.933,226.933 58.447,226.572 58.845 C 226.441 58.991,226.333 59.186,226.333 59.279 C 226.333 59.921,221.969 64.000,221.282 64.000 C 221.163 64.000,220.716 64.221,220.290 64.492 C 219.845 64.774,218.996 65.092,218.299 65.238 C 217.630 65.378,216.836 65.565,216.534 65.653 C 215.428 65.978,212.976 66.035,211.583 65.769 C 208.732 65.224,207.734 64.971,207.333 64.690 C 207.104 64.530,206.654 64.298,206.333 64.175 C 206.012 64.052,205.487 63.754,205.167 63.513 C 204.846 63.271,204.396 62.954,204.167 62.809 C 203.635 62.471,202.254 61.091,201.688 60.333 C 201.448 60.012,201.202 59.712,201.141 59.666 C 200.686 59.322,199.234 56.269,198.644 54.417 C 198.069 52.609,197.802 47.683,198.178 45.804 C 198.275 45.316,198.440 44.504,198.543 44.000 C 199.342 40.099,202.562 35.820,206.007 34.082 C 206.507 33.829,206.954 33.566,207.000 33.497 C 207.046 33.427,207.421 33.282,207.833 33.174 C 208.246 33.066,209.108 32.832,209.750 32.655 C 210.392 32.478,211.179 32.265,211.500 32.182 C 212.664 31.879,214.831 31.986,216.417 32.425 M284.833 32.242 C 285.612 32.371,286.578 32.595,286.979 32.739 C 287.380 32.882,287.837 33.000,287.993 33.000 C 288.338 33.000,290.784 34.257,291.250 34.674 C 292.099 35.433,293.159 35.087,293.164 34.048 C 293.166 33.670,293.273 33.455,293.529 33.318 C 293.961 33.087,297.204 32.907,298.056 33.067 C 299.255 33.292,299.167 32.003,299.167 49.187 L 299.167 64.684 298.542 64.946 C 298.041 65.157,297.494 65.192,295.790 65.124 C 293.405 65.028,293.167 64.927,293.167 64.013 C 293.167 62.951,292.297 62.644,291.388 63.384 C 290.785 63.875,288.782 64.879,287.917 65.123 C 285.383 65.840,285.013 65.901,283.250 65.892 C 282.242 65.887,281.117 65.796,280.750 65.689 C 280.383 65.582,279.523 65.377,278.839 65.233 C 278.155 65.089,277.405 64.838,277.173 64.675 C 276.940 64.512,276.465 64.277,276.118 64.153 C 275.770 64.029,275.357 63.812,275.201 63.671 C 275.045 63.530,274.713 63.283,274.465 63.124 C 265.012 57.059,265.917 39.118,275.932 34.036 C 276.290 33.854,276.880 33.547,277.244 33.353 C 277.607 33.159,278.057 32.999,278.244 32.998 C 278.430 32.997,278.958 32.877,279.417 32.732 C 281.880 31.951,282.662 31.880,284.833 32.242 M322.825 32.196 C 323.349 32.317,323.931 32.611,324.338 32.959 L 325.000 33.526 325.000 35.757 C 325.000 38.580,324.775 38.774,322.501 37.921 C 321.280 37.464,317.901 38.159,316.786 39.097 C 316.523 39.319,316.257 39.500,316.195 39.500 C 315.923 39.500,314.166 41.360,313.737 42.101 C 313.478 42.550,313.225 42.954,313.174 43.000 C 312.997 43.162,312.683 43.932,312.224 45.333 L 311.759 46.750 311.705 55.695 C 311.657 63.540,311.619 64.666,311.391 64.854 C 311.011 65.170,306.325 65.170,305.943 64.855 C 305.689 64.644,305.667 63.361,305.667 49.065 L 305.667 33.504 306.292 33.236 C 306.793 33.021,307.316 32.984,308.934 33.048 C 311.560 33.154,311.667 33.213,311.667 34.569 C 311.667 36.158,312.432 36.253,313.913 34.847 C 314.190 34.584,314.745 34.192,315.147 33.976 C 315.548 33.760,316.057 33.484,316.277 33.364 C 316.699 33.131,318.905 32.470,320.167 32.198 C 321.219 31.970,321.845 31.970,322.825 32.196 M376.200 32.183 C 376.686 32.284,377.527 32.509,378.069 32.683 C 378.611 32.857,379.214 33.000,379.409 33.000 C 379.756 33.000,380.020 33.121,381.800 34.098 C 383.481 35.022,385.435 37.183,386.422 39.211 L 386.890 40.172 386.440 40.643 C 386.192 40.901,385.673 41.266,385.286 41.452 C 384.404 41.878,383.647 42.257,382.988 42.601 C 382.235 42.996,381.421 42.648,380.925 41.719 C 379.207 38.499,374.485 37.122,370.000 38.534 C 366.851 39.524,366.965 43.861,370.167 44.839 C 370.579 44.966,371.217 45.198,371.583 45.357 C 372.003 45.538,372.959 45.688,374.167 45.763 C 375.221 45.829,376.646 46.025,377.333 46.199 C 378.021 46.374,379.071 46.624,379.667 46.756 C 387.327 48.450,389.727 57.311,383.953 62.581 C 383.304 63.173,382.506 63.779,382.179 63.928 C 381.851 64.077,381.246 64.370,380.833 64.579 C 380.421 64.788,379.633 65.046,379.083 65.152 C 378.533 65.258,377.673 65.467,377.172 65.616 C 375.906 65.993,372.146 66.000,370.667 65.629 C 370.071 65.479,369.283 65.310,368.917 65.252 C 366.156 64.819,362.138 61.611,360.524 58.550 C 360.254 58.038,360.723 57.089,361.403 56.771 C 361.686 56.640,362.179 56.409,362.500 56.259 C 362.821 56.110,363.346 55.844,363.667 55.668 C 364.738 55.083,365.424 55.212,366.045 56.117 C 368.026 59.004,370.128 59.989,374.323 59.997 C 379.623 60.007,382.207 57.737,380.771 54.331 C 380.072 52.673,376.679 51.345,373.094 51.327 C 371.906 51.321,370.640 51.080,369.417 50.627 C 369.050 50.491,368.376 50.290,367.919 50.180 C 367.462 50.070,366.974 49.881,366.835 49.759 C 366.697 49.638,366.283 49.384,365.917 49.195 C 365.322 48.888,364.040 47.764,363.579 47.146 C 362.283 45.409,361.917 44.239,361.917 41.833 C 361.917 38.428,363.514 35.371,365.922 34.170 C 366.194 34.034,366.679 33.760,367.000 33.560 C 367.321 33.361,368.371 33.010,369.333 32.780 C 370.296 32.550,371.383 32.288,371.750 32.198 C 372.674 31.971,375.138 31.963,376.200 32.183 M126.375 33.301 L 126.833 33.492 126.833 49.059 C 126.833 63.334,126.810 64.645,126.558 64.855 C 126.180 65.168,121.752 65.180,121.207 64.869 L 120.832 64.654 120.874 49.041 L 120.917 33.427 121.583 33.218 C 122.388 32.965,125.704 33.023,126.375 33.301 M60.750 38.241 C 54.974 39.143,51.681 44.968,53.074 51.821 C 53.707 54.934,55.216 57.418,57.134 58.504 C 57.381 58.644,57.921 58.954,58.333 59.193 C 59.486 59.860,62.332 60.115,64.667 59.759 C 67.348 59.350,70.479 56.395,71.354 53.448 C 71.969 51.375,72.183 48.292,71.823 46.699 C 71.726 46.269,71.568 45.579,71.474 45.167 C 70.393 40.468,65.739 37.462,60.750 38.241 M95.417 38.112 C 84.293 39.108,83.380 58.008,94.368 59.832 C 96.461 60.179,99.332 59.830,100.411 59.098 C 100.761 58.861,101.156 58.667,101.290 58.667 C 102.291 58.667,104.932 54.814,105.516 52.500 C 105.828 51.268,105.828 46.899,105.517 45.667 C 104.273 40.737,100.193 37.685,95.417 38.112 M212.750 38.112 C 201.629 39.107,200.716 58.009,211.701 59.832 C 213.794 60.179,216.665 59.830,217.744 59.098 C 218.094 58.861,218.489 58.667,218.623 58.667 C 219.625 58.667,222.266 54.814,222.850 52.500 C 223.161 51.268,223.161 46.899,222.850 45.667 C 221.606 40.737,217.526 37.685,212.750 38.112 M248.083 38.182 C 246.723 38.374,245.666 38.667,245.167 38.991 C 244.938 39.140,244.555 39.359,244.318 39.479 C 240.251 41.516,238.450 49.712,240.961 54.750 C 241.819 56.471,242.983 57.843,244.142 58.500 C 244.385 58.638,244.880 58.935,245.242 59.159 C 248.565 61.224,255.357 59.396,257.094 55.969 C 257.248 55.665,257.475 55.300,257.599 55.158 C 258.241 54.423,258.871 51.789,258.954 49.494 C 259.216 42.248,254.447 37.284,248.083 38.182 M281.750 38.240 C 276.874 38.998,273.974 42.995,273.942 49.000 C 273.910 54.912,276.829 59.042,281.606 59.846 C 283.382 60.145,286.190 59.858,287.334 59.261 C 287.654 59.094,288.179 58.822,288.500 58.657 C 291.140 57.303,293.046 53.291,293.049 49.083 C 293.054 41.802,288.283 37.225,281.750 38.240 M339.333 38.113 C 334.732 38.817,332.039 41.336,330.902 46.000 C 330.426 47.953,330.704 52.294,331.390 53.617 C 331.542 53.910,331.667 54.257,331.667 54.387 C 331.667 54.754,333.215 57.012,333.937 57.697 C 335.965 59.622,339.045 60.378,342.333 59.758 C 343.877 59.467,344.333 59.332,344.333 59.165 C 344.333 59.094,344.618 58.922,344.966 58.783 C 349.720 56.881,351.457 47.258,347.973 42.127 C 346.101 39.370,342.389 37.645,339.333 38.113 " stroke="none" fill="#fbfbfb" fill-rule="evenodd"></path></g></svg>